<svg width="48" height="48" xmlns="http://www.w3.org/2000/svg">
  <path d="M16.7723 26.8924l-.226 2.9873-.1646 2.2104-.8206 10.8436a1.9088 1.9088 0 01-1.9024 1.7633H10.458c-1.2507 0-2.1625-1.1857-1.8414-2.397l3.0746-11.5645.478-1.798.5424-2.0451h4.0606" fill="#3c3c3b"/>
  <path d="M16.5463 29.8797l-.1646 2.2104c-1.4376-.0081-2.8752-.3516-4.1514-1.0076-.187-.0954-.3782-.208-.539-.347l.478-1.798c.6428-.2041 1.368-.0086 2.0237.1911l1.7193.5212c.2171.0653.4343.1302.634.23" fill="#be1622"/>
  <path d="M19.5646 28.7118c-2.892 3.7824-7.439 1.9283-7.9992.126a1.164 1.164 0 01-.056-.3173c-.1434.4127-1.173 3.3308-1.173 3.3308-.3779-1.6196-.5642-3.2392-.5642-4.816 0-5.2587 2.0884-10.0445 6.1795-12.7718 1.1073-1.6065 1.4415-3.604 1.5586-5.7143.2739-1.985 1.4767-2.6752 2.619-2.8664 1.1503-.1998 2.236.1132 2.236.1132.061.243.1132.486.161.7337.291 1.5937.2431 3.2307-.161 4.911l.7252 2.8228a25.57 25.57 0 01.1348 2.0543c.126 4.8117-1.129 8.9198-3.6607 12.394" fill="#3c3c3b"/>
  <path d="M41.1648 9.8474l-1.1897-.0522-.0085.0089c-.0393.0695-.0872.1345-.1348.1997a2.2735 2.2735 0 01-1.4898.8945c-4.2947.6429-13.067 1.2943-15.9763.4686l-.439-1.6065-.1383-.5123c.7813-.8731.9331-2.0411.577-3.4521.1173-.0178.2348-.0394.3561-.0568 5.3546-.8469 15.2384-1.8847 17.8227 2.1586.3513.551.5684 1.1981.6206 1.9492" fill="#f39200"/>
  <path d="M31.3838 5.393c-2.4303 0-5.2864.2554-8.4962.7595.0908.5014.0422.3566 0 .7905 7.9938-.5971 12.7438-.2835 17.2696 1.1694-1.1712-1.8052-4.1068-2.7195-8.7734-2.7195" fill="#f9b233"/>
  <path d="M39.9748 9.7952l-.0082.0089c-.0393.0695-.0872.1345-.1348.1997a2.2735 2.2735 0 01-1.4898.8945c-3.4826.5215-9.914 1.0466-13.7702.7862-.8987-.0568-1.659-.1607-2.2065-.3175l-.5726-2.1061-.0043-.0128c7.4557-.1909 12.029-.0475 14.7257.1387 2.6099.187 3.461.408 3.461.408" fill="#e94e1b"/>
  <path d="M23.0124 8.0102a3.3053 3.3053 0 01-1.0856 1.7502l-.1384-.5123c.7813-.8731.9331-2.0411.5769-3.4521.1174-.0178.2349-.0394.3562-.0568a3.2684 3.2684 0 01.291 2.271" fill="#3c3c3b"/>
  <path d="M24.5718 11.6845c-.8987-.0568-1.659-.1607-2.2065-.3176l-.5726-2.106a3.4415 3.4415 0 011.8754.9207 3.428 3.428 0 01.9037 1.5029m16.593-1.8371l-1.1896-.0522s-.8512-.2214-3.461-.4084a.8189.8189 0 01-.1349-.2778c-.0653-.2909.0603-.595.265-.812.1994-.213.4733-.3474.7469-.4602.877-.3563 1.8847-.5081 2.7617-.1476.1348.056.265.1256.3913.2086.3513.551.5684 1.1981.6206 1.9492" fill="#3c3c3b"/>
  <path d="M20.3465 7.2893c-.2348.9906-.4736 1.985-.7081 2.975-.2385.9987-.4822 2.0148-.9988 2.905-.3906.6777-.9338 1.2638-1.2986 1.9585-1.4067 2.6794.1171 6.2752-1.489 8.8414-.6344 1.0119-1.6683 1.6942-2.5276 2.5233a9.2956 9.2956 0 00-1.759 2.3452 1.164 1.164 0 01-.0561-.3172c-.1433.4126-1.173 3.3308-1.173 3.3308-.3778-1.6196-.564-3.2392-.564-4.816 0-5.2587 2.0883-10.0445 6.1794-12.7718 1.1073-1.6065 1.4415-3.604 1.5586-5.7143.2739-1.985 1.4766-2.6752 2.619-2.8664a1.001 1.001 0 01.2257.2952c.1952.3998.0955.877-.0085 1.3113" fill="#303030"/>
  <path d="M23.2253 16.3177c-.6688.5993-1.52.9555-2.397.8164-1.1161-.1777-2.8575-1.1981-3.1395-2.293-.2608-.9941.4821-2.3147 1.5586-3.0136.1696-.9466-.269-1.8716-.0955-2.8139.039-.2044.0784-.4169.126-.6209.1128-.469.2867-.9207.6166-1.2595.53-.5517 1.3113-.673 2.106-.6383.1743 0 .352.017.5259.0348.2909 1.5937.243 3.2307-.1611 4.911 0 0 1.178 2.5684.86 4.877" fill="#ededed"/>
  <path d="M22.0964 7.5412c-.048.3995-.126.8469-.4513 1.0857-.3176.2302-.7561.1738-1.1382.0915a13.0795 13.0795 0 01-1.229-.326c.1128-.4687.2867-.9204.6166-1.2592.53-.5517 1.3113-.673 2.106-.6383.0654.1086.1001.23.1175.3516.0351.2306.0089.4648-.0216.695" fill="#f9b233"/>
  <path d="M21.7827 7.6398a.7238.7238 0 11-1.4475 0 .7238.7238 0 011.4475 0" fill="#36a9e1"/>
  <path d="M21.5691 7.6398a.5105.5105 0 11-1.0207 0 .5105.5105 0 011.0207 0" fill="#3c3c3b"/>
  <path d="M20.9082 7.433a.232.232 0 11-.4641.0007.232.232 0 01.4637-.0007" fill="#fff"/>
  <path d="M24.6026 35.324H8.49v-1.8584h16.1126v1.8584" fill="#dadada"/>
  <path d="M15.1928 32.9281c-.2746.1721-.6826.3655-.958.5375.5294 0 1.0524-.0255 1.3291.158.3988.265.4258.9096.1689 1.3137-.2569.4034-.7107.3867-1.2599.3793 1.988.7021 1.9954-1.2053 1.6757-1.6253.4683.2235.8686 1.6963-.6922 1.6281 1.6285.5634 1.8591-.8075 1.1467-1.6622.55.1355 1.3234 1.581-.1423 1.6622 1.5604.4751 1.6622-1.1602.6309-1.764-.6593-.386-.8693-.3137-1.3007-.8317-.2594-.3108-.722-2.0567-1.0215-2.8408-.1834-.4034-.8093-.121-.6127.3023.4169 1.2013.6195 1.5423 1.036 2.7429" fill="#878787"/>
  <path d="M18.408 32.9281c-.2754.1721-.6834.3655-.958.5375.5293 0 1.0516-.0255 1.3283.158.3988.265.4261.9096.1693 1.3137-.2573.4034-.7107.3867-1.2603.3793 1.9883.7021 1.9954-1.2053 1.6761-1.6253.468.2235.8685 1.6963-.6918 1.6281 1.6281.5634 1.859-.8075 1.1463-1.6622.55.1355 1.3234 1.581-.1423 1.6622 1.5608.4751 1.6622-1.1602.6305-1.764-.6589-.386-.8689-.3137-1.3007-.8317-.2593-.3108-.7216-2.0567-1.0214-2.8408-.1835-.4034-.8093-.121-.6128.3023.417 1.2013.6199 1.5423 1.0367 2.7429" fill="#878787"/>
</svg>
