<svg xmlns="http://www.w3.org/2000/svg" width="192" height="160">
  <path fill="#7a9e19" d="M116.32969 61.561s-3.172 6.74-7.497 11.819c-3.322 3.884-7.314 6.795-11.075 4.952-30.264-14.864-40.71-34.276-50.908-52.472a240.012 240.012 0 0132.639 12.927c14.597 7.058 27.174 15.025 36.841 22.774"/>
  <path fill="#634e42" d="M100.79969 93.936l-6.605 33.276-1.609 8.09c-2.683 1.74-4.855 1.803-5.77-2.286-3.042 1.837-4.853 1.028-5.54-2.19-2.76 1.645-4.967 1.222-6.305-2.498-3.069 1.399-5.329 1.135-6.014-2.383-3.386 1.776-5.734 1.654-5.971-2.365l4.29-6.007 19.963-27.964 13.56 4.327"/>
  <path fill="#3c3c3b" d="M100.79969 93.936l-6.605 33.276c-2.269 1.292-4.072 1.081-4.872-2.472-2.849 1.724-4.546.968-5.197-2.057-2.585 1.538-4.66 1.152-5.91-2.339-2.875 1.319-5.003 1.064-5.645-2.235-2.604 1.372-4.564 1.531-5.294-.536l19.962-27.964 13.56 4.327"/>
  <path fill="#95c11f" d="M131.86869 52.428c0 1.284-.431 2.577-1.179 3.799-.36.598-.8 1.188-1.31 1.733l-.123.14-.018.01a14.856 14.856 0 01-3.342 2.637c-1.222 1.346-1.908 2.78-2.304 4.326-.343 1.303-.466 2.674-.536 4.134.07.704.105 1.433.105 2.181 0 .299-.008.607-.027.915a25.588 25.588 0 01-.492 4.185c-1.046 5.268-3.808 11.133-9.312 16.761-6.542 6.684-16.946 13.015-32.933 17.579-4.045 1.152 4.203-16.172 12.724-33.144 1.081-2.145 2.172-4.115 3.28-5.892 1.108-1.776 2.216-3.368 3.343-4.784 1.854-3.253 3.561-5.381 4.897-7.219.423-.572.8-1.126 1.135-1.662.132-.211.254-.414.369-.616l.044-.088c.247-.458.467-.915.643-1.39a8.584 8.584 0 00.518-2.022l.026-.194c.08-.668.256-2.216.748-3.27 1.636-3.527 5.794-6.112 10.772-6.112 4.326 0 8.812 1.38 11.213 3.869 1.099 1.143 1.759 2.532 1.759 4.124"/>
  <path fill="#7b6a58" d="M105.22269 59.621s-1.09 7.37-3.764 13.482c-2.058 4.678-5.038 8.618-9.172 7.941-33.268-5.488-48.877-21.053-63.897-35.528a239.979 239.979 0 0134.983 2.947c16.013 2.541 30.356 6.533 41.85 11.158"/>
  <path fill="#ededed" d="M123.05669 69.207c.07.704.105 1.433.105 2.181 0 1.61-.167 3.315-.519 5.1-1.046 5.268-3.808 11.133-9.312 16.761l.008-.122c.186-2.12.888-4.16 1.223-6.254.325-2.101.237-4.405-1.003-6.137-.748-1.047-1.856-1.785-2.708-2.761-3.193-3.632-2.041-9.304-3.764-13.824-.598-1.566-1.53-2.964-2.445-4.362.581-.792 1.081-1.53 1.504-2.278 1.003.792 1.952 1.68 2.947 2.462 4.097 3.236 9.294 5.066 14.5 5.1-.343 1.303-.466 2.674-.536 4.134"/>
  <path fill="#3c3c3b" d="M131.86869 52.428c0 1.284-.431 2.577-1.179 3.799-.36.598-.8 1.188-1.31 1.733-.37.07-.747.113-1.109.157-4.678.538-9.348 1.064-14.026 1.602-1.046.122-2.102.237-3.148.096-1.319-.176-2.542-.766-3.684-1.442-.44-.264-.898-.562-1.223-.95.247-.458.467-.915.643-1.39a8.584 8.584 0 00.518-2.022l.026-.194a29.399 29.399 0 0013.649 1.495c.57-.079 1.16-.175 1.635-.5.466-.335.782-.959.581-1.496-1.108-.79-2.621-.377-3.967-.157-1.345.218-3.096-.036-3.482-1.347-.238-.8.202-1.679.836-2.224 1.362-1.188 3.394-1.161 5.17-.836 1.776.317 3.588.853 5.356.475.976-.211 1.987-.686 2.955-.923 1.099 1.143 1.759 2.532 1.759 4.124"/>
  <path fill="#e6332a" d="M130.68969 56.227a11.46 11.46 0 01-1.433 1.873l-.018.01a14.856 14.856 0 01-3.342 2.637c-1.222 1.346-1.908 2.78-2.304 4.326-.343 1.303-.466 2.674-.536 4.134.07.704.105 1.433.105 2.181 0 .299-.008.607-.027.915h-.061c-1.767-.08-3.219-1.416-4.283-2.832-1.064-1.407-1.952-3.008-3.376-4.054-1.601-1.188-3.737-1.54-5.206-2.893-1.064-.968-2.146-1.46-2.894-2.683-.448-.729-.966-1.098-1.538-1.714.132-.211.254-.414.369-.616.264-.483.501-.967.687-1.478.448.194.861.475 1.292.722 2.252 1.274 4.977 1.416 7.545 1.108 2.576-.316 5.075-1.047 7.633-1.424 1.135-.159 6.296-.607 7.387-.212"/>
  <path fill="#3c3c3b" d="M77.24869 53.279c-.047.684-.587 1.224-1.23 1.205l-33.09-.959c-2.743-.078-5.055-1.389-4.951-2.92.104-1.529 2.572-2.514 5.3-2.221l32.916 3.535c.639.069 1.101.677 1.055 1.36"/>
  <path fill="#3c3c3b" d="M86.91969 54.933c.042.684-.423 1.29-1.063 1.355l-32.932 3.37c-2.73.28-5.194-.718-5.29-2.249-.096-1.53 2.222-2.829 4.966-2.894l33.094-.792c.643-.016 1.18.526 1.224 1.21"/>
  <path fill="#3c3c3b" d="M85.83969 55.116l-25.289 4.804c-2.696.513-4.772 2.172-4.426 3.667.345 1.494 2.937 2.076 5.585 1.356l24.13-6.57v-3.257"/>
  <path fill="#3c3c3b" d="M85.83969 57.196l-17.385 7.103c-2.54 1.037-4.244 3.076-3.609 4.472.635 1.396 3.292 1.45 5.743.218l15.252-7.668v-4.125"/>
  <path fill="#3c3c3b" d="M85.83969 61.341v-.933l-10.99 7.62c-2.255 1.563-3.477 3.923-2.555 5.148.923 1.225 3.528.704 5.655-1.03l13.244-10.805h-5.353"/>
  <path fill="#3c3c3b" d="M90.27069 61.341l-9.102 8.672c-1.987 1.894-2.831 4.414-1.73 5.482 1.1 1.068 3.595.15 5.427-1.891l11.008-12.263h-5.603"/>
  <path fill="#3c3c3b" d="M94.11369 61.341l-7.045 10.436c-1.535 2.274-1.819 4.916-.515 5.724 1.303.808 3.543-.622 4.896-3.009l7.455-13.15h-4.791"/>
  <path fill="#3c3c3b" d="M97.89769 61.341l-5.757 11.672c-1.214 2.46-1.139 5.116.262 5.742 1.402.624 3.427-1.096 4.446-3.644l5.502-13.77h-4.453"/>
  <path fill="#95c11f" d="M105.22269 59.621c1.735 1.36.774 8.83-3.764 13.482-17.5-6.296-28.914-15.152-38.086-24.64 16.013 2.541 30.356 6.533 41.85 11.158"/>
  <path fill="#ededed" d="M121.41969 50.785a1.593 1.593 0 11-3.186 0 1.593 1.593 0 013.187 0"/>
  <path fill="#3c3c3b" d="M120.81669 50.785a.989.989 0 11-1.978.001.989.989 0 011.978 0"/>
  <path fill="#fff" d="M119.53469 50.385a.45.45 0 11-.9 0 .45.45 0 01.9 0"/>
  <path fill="#3c3c3b" d="M126.95369 53.257l-.955-2.458c14.088-5.474 29.436-6.022 42.42-1.758 2.283.684 1.77 3.03-.68 1.907-12.397-4.056-27.277-2.939-40.785 2.31"/>
</svg>
