<svg xmlns="http://www.w3.org/2000/svg" width="32" height="32">
  <path d="M407.35 298.04c-.68-3.45-3.71-6.04-7.35-6.04-2.89 0-5.4 1.64-6.65 4.04-3.01.32-5.35 2.87-5.35 5.96a6 6 0 006 6h13a5 5 0 005-5c0-2.64-2.05-4.78-4.65-4.96M407 306h-13a4 4 0 01-4-4c0-2.05 1.53-3.76 3.56-3.97l1.07-.11.5-.95c.95-1.83 2.81-2.97 4.87-2.97 2.62 0 4.88 1.86 5.39 4.43l.3 1.5 1.53.11c1.56.1 2.78 1.41 2.78 2.96a3 3 0 01-3 3m-11-5h2.55v3h2.9v-3H404l-4-4-4 4zM23.35 9.25774c-.68-3.45-3.71-6.04-7.35-6.04-2.89 0-5.4 1.64-6.65 4.04-3.01.32-5.35 2.87-5.35 5.96a6 6 0 006 6h13a5 5 0 005-5c0-2.64-2.05-4.78-4.65-4.96m-.35 7.96H10a4 4 0 01-4-4c0-2.05 1.53-3.76 3.56-3.97l1.07-.11.5-.95c.95-1.83 2.81-2.97 4.87-2.97 2.62 0 4.88 1.86 5.39 4.43l.3 1.5 1.53.11c1.56.1 2.78 1.41 2.78 2.96a3 3 0 01-3 3zM12 25.04289h2.55v3h2.9v-3H20l-4-4-4 4z"/>
</svg>
