<?xml version="1.0" encoding="utf-8"?>
<!-- Svg Vector Icons : https://www.onlinewebfonts.com/icon/ -->
<!DOCTYPE svg PUBLIC "-//W3C//DTD SVG 1.1//EN" "http://www.w3.org/Graphics/SVG/1.1/DTD/svg11.dtd">
<svg version="1.1" xmlns="http://www.w3.org/2000/svg" xmlns:xlink="http://www.w3.org/1999/xlink" x="0px" y="0px" viewBox="0 0 1000 1000" enable-background="new 0 0 1000 1000" xml:space="preserve">
<metadata> Svg Vector Icons : https://www.onlinewebfonts.com/icon/ </metadata>
<g><g transform="translate(0.000000,511.000000) scale(0.100000,-0.100000)"><path fill="#ffffff" d="M4811.7,5096.4c-409-54.7-865-338.7-1135.9-706l-62.5-88.6l-164.1,31.3c-268.4,54.7-680,23.4-945.7-70.4c-424.7-145.9-784.2-450.7-977-825.9l-96.4-187.6l-226.7-70.3C682.2,3012.1,294,2605.7,145.5,2063.7c-65.1-239.7-59.9-669.6,13-971.8c104.2-432.5,354.3-779,635.7-888.4c99-36.5,299.6-244.9,1399.1-1435.6l1284.4-1393.9l104.2,7.8c208.4,15.6,195.4-164.2,169.3,2482.9l-20.8,2344.8l83.4,70.4c135.5,112,482,276.2,711.3,336.1c273.6,72.9,706,78.2,964,13c229.3-59.9,450.7-164.2,648.7-304.8l153.7-109.4l-18.2-1266.2C6265.5,253,6255-812.6,6255-1419.6c-5.2-1023.9-2.6-1104.7,41.7-1151.6c31.3-33.9,80.8-52.1,140.7-52.1c93.8,0,135.4,44.3,1367.8,1380.8C8998.5,49.8,9089.7,146.2,9259,234.8c283.9,148.5,479.3,416.9,583.6,802.4c62.5,239.7,78.2,766,26.1,990c-91.2,388.2-343.9,755.5-659.1,966.6c-83.4,54.7-260.5,138.1-393.4,182.4c-242.3,80.8-244.9,80.8-302.3,208.4c-190.2,403.8-581,737.3-1044.7,888.4c-174.5,57.3-260.5,67.7-521.1,70.3c-171.9,2.6-362.2-5.2-419.5-15.6l-109.4-20.8l-125.1,172C5965.8,4927,5379.6,5171.9,4811.7,5096.4z M3324,2009c26.1-109.4,15.6-3449.5-13-3402.6c-13,26.1-294.4,609.6-622.7,1300c-359.5,753-599.2,1281.8-599.2,1328.7c0,304.8,422.1,674.8,901.5,789.4C3225,2082,3305.8,2076.8,3324,2009z M7075.7,1996c429.9-106.8,789.4-416.9,836.3-724.3c15.6-96.4-26-198-604.4-1404.3l-620.1-1300.1l-7.8,1664.8c-2.6,914.5,0,1703.9,7.8,1750.8c15.6,86,18.3,86,125.1,70.4C6872.5,2042.9,6992.4,2019.5,7075.7,1996z M2232.4-96.1c297-622.7,547.1-1143.8,554.9-1159.4c23.5-44.3-13-5.2-799.8,846.7c-466.4,505.4-758.2,841.5-758.2,872.8c2.6,140.7,205.8,432.5,377.8,536.7c41.7,26,78.2,44.3,80.8,41.7C1690.5,1039.8,1935.4,526.6,2232.4-96.1z M8521.7,907c125.1-117.2,276.2-390.8,257.9-466.4c-7.8-36.5-1532-1696.1-1532-1670c0,7.8,190.2,409,419.4,893.6c231.9,482,471.6,987.4,534.1,1120.3c73,153.7,127.7,239.7,153.7,239.7C8378.4,1024.2,8454,972.1,8521.7,907z"/><path fill="#ffffff" d="M4717.9-2018.8c-156.3-80.8-291.8-265.8-317.8-437.7c-39.1-237.1,101.6-510.6,320.4-635.7c156.3-86,406.4-88.6,562.8-7.8c208.4,109.4,330.9,315.2,330.9,554.9C5614.1-2089.2,5129.5-1802.6,4717.9-2018.8z"/><path fill="#ffffff" d="M6562.5-2662.4c-33.9-18.2-229.3-156.3-429.9-310l-367.4-276.2h-758.2h-755.5l-401.2,302.2c-367.4,273.6-411.7,299.6-500.2,291.8c-125.1-10.4-205.8-109.4-179.8-224.1c13-65.1,99-140.7,476.8-424.7c432.5-325.6,469-346.5,596.6-356.9l138.1-10.4v-609.6v-609.7h625.3h625.3v612.3v612.3h130.3c125.1,0,143.3,10.4,596.6,349.1c393.4,294.4,469,364.7,484.6,432.5C6877.7-2724.9,6703.1-2589.4,6562.5-2662.4z"/></g></g>
</svg>