<!DOCTYPE svg PUBLIC "-//W3C//DTD SVG 20010904//EN" "http://www.w3.org/TR/2001/REC-SVG-20010904/DTD/svg10.dtd">
<svg version="1.0" xmlns="http://www.w3.org/2000/svg" width="256px" height="256px" viewBox="0 0 2560 2560" preserveAspectRatio="xMidYMid meet">
<g id="layer101" fill="#2f299e" stroke="none">
 <path d="M0 1280 l0 -1280 1280 0 1280 0 0 1280 0 1280 -1280 0 -1280 0 0 -1280z"/>
 </g>
<g id="layer102" fill="#ffffff" stroke="none">
 <path d="M1739 2170 c-143 -37 -412 -198 -599 -357 -291 -247 -322 -279 -453 -465 -39 -56 -81 -139 -112 -223 -10 -27 -25 -59 -32 -71 -28 -44 -52 -138 -64 -248 -14 -130 -8 -162 55 -301 32 -69 91 -135 122 -135 56 0 216 135 314 265 24 33 60 78 80 101 19 22 55 67 80 99 54 70 195 228 380 427 74 79 164 180 200 223 36 43 133 149 216 234 84 86 157 166 163 178 6 12 11 43 11 69 0 45 -3 51 -57 104 -66 63 -140 105 -198 113 -23 3 -68 -3 -106 -13z"/>
 <path d="M1603 1088 c-4 -7 -8 -33 -9 -58 0 -25 -4 -55 -9 -67 -9 -27 15 -32 34 -9 11 13 18 11 55 -8 24 -13 54 -30 67 -39 44 -31 55 -10 17 31 l-23 24 45 -3 c36 -3 45 -1 48 14 3 12 -3 17 -22 17 -28 0 -103 64 -86 75 5 3 10 13 10 21 0 18 -115 20 -127 2z"/>
 </g>

</svg>